<?xml version="1.0" encoding="UTF-8"?>
<svg version="1.1" xmlns="http://www.w3.org/2000/svg" width="425" height="94">
<path d="M0 0 C33.99 0 67.98 0 103 0 C103 31.02 103 62.04 103 94 C69.01 94 35.02 94 0 94 C0 62.98 0 31.96 0 0 Z " fill="#87A5E2" transform="translate(2,0)"/>
<path d="M0 0 C33.99 0 67.98 0 103 0 C103 31.02 103 62.04 103 94 C69.01 94 35.02 94 0 94 C0 62.98 0 31.96 0 0 Z M36 7 C35.14486816 7.51143555 34.28973633 8.02287109 33.40869141 8.54980469 C30.46689172 10.32403208 27.54335753 12.12499092 24.625 13.9375 C23.67343018 14.52217041 22.72186035 15.10684082 21.74145508 15.70922852 C14.70253225 20.17871143 8.51230879 24.74405554 6 33 C5.70689503 35.95171976 5.69590204 38.88700603 5.69921875 41.8515625 C5.69493362 42.70624115 5.6906485 43.5609198 5.68623352 44.4414978 C5.68050179 46.24858721 5.67998142 48.05569969 5.68432617 49.86279297 C5.68746569 52.59514015 5.66408436 55.32638188 5.63867188 58.05859375 C5.08064943 72.82011604 5.08064943 72.82011604 10.59838867 85.97705078 C16.64300349 92.00773577 24.65847319 92.22839875 32.75621033 92.27789307 C33.84599686 92.2738446 34.93578339 92.26979614 36.05859375 92.265625 C37.20231949 92.26753845 38.34604523 92.2694519 39.52442932 92.27142334 C41.93401307 92.27277935 44.34360427 92.26912386 46.75317383 92.26074219 C50.42220639 92.25004459 54.09074826 92.26065261 57.75976562 92.2734375 C60.10937607 92.27211561 62.45898621 92.26955261 64.80859375 92.265625 C65.89635605 92.26967346 66.98411835 92.27372192 68.10484314 92.27789307 C77.36376233 92.22147389 85.20672264 91.50588239 92.6875 85.6875 C97.60062374 79.37062662 97.16484415 69.93988466 97.23828125 62.28515625 C97.25038887 61.06329872 97.25038887 61.06329872 97.26274109 59.8167572 C97.27649565 58.10320105 97.28725588 56.38961849 97.29516602 54.67602539 C97.30671068 52.93538297 97.32720167 51.19477662 97.35668945 49.4543457 C97.39955553 46.91854186 97.4155559 44.38377824 97.42578125 41.84765625 C97.45204338 40.69572533 97.45204338 40.69572533 97.47883606 39.52052307 C97.45398199 33.25434488 95.77335187 27.96850608 91.43026733 23.31980896 C86.68923799 18.95788583 81.04309101 15.70931834 75.5625 12.375 C74.65951172 11.81554688 73.75652344 11.25609375 72.82617188 10.6796875 C58.79494044 2.06384082 50.8310002 -1.95870191 36 7 Z " fill="#FDFDFD" transform="translate(2,0)"/>
<path d="M0 0 C3.70806596 -0.11674705 7.4156554 -0.18743274 11.125 -0.25 C12.17171875 -0.28351562 13.2184375 -0.31703125 14.296875 -0.3515625 C20.53924618 -0.43057986 24.27417198 -0.22961608 29 4 C31.59543534 7.42125567 31.42462042 10.82456585 31 15 C29.44103524 19.31372636 27.95178581 21.4851382 23.8515625 23.703125 C22.91054687 24.13109375 21.96953125 24.5590625 21 25 C21.3609375 26.10859375 21.721875 27.2171875 22.09375 28.359375 C22.56280277 29.82281966 23.03153607 31.28636674 23.5 32.75 C23.73847656 33.47960938 23.97695312 34.20921875 24.22265625 34.9609375 C24.44824219 35.66992188 24.67382812 36.37890625 24.90625 37.109375 C25.11572266 37.75874023 25.32519531 38.40810547 25.54101562 39.07714844 C26 41 26 41 26 45 C22.37 45 18.74 45 15 45 C13.58710556 41.46776391 12.58238491 38.44145047 11.6875 34.8125 C10.6156325 30.79949561 10.6156325 30.79949561 7.3125 28.375 C6.549375 28.25125 5.78625 28.1275 5 28 C4.95101562 28.64066406 4.90203125 29.28132813 4.8515625 29.94140625 C4.3959855 35.21196085 3.6402621 39.96986288 2 45 C-1.63 45 -5.26 45 -9 45 C-7.61475093 34.93567464 -5.59217888 25.09425834 -3.375 15.1875 C-3.0464934 13.70516264 -2.71836623 12.22274114 -2.390625 10.74023438 C-1.59810581 7.15917917 -0.80051422 3.5792776 0 0 Z M10 8 C9.01 11.96 8.02 15.92 7 20 C8.423125 19.896875 9.84625 19.79375 11.3125 19.6875 C12.11300781 19.62949219 12.91351563 19.57148437 13.73828125 19.51171875 C16.4170136 18.90564977 17.38258968 18.19801915 19 16 C19.25048636 12.87450983 19.25048636 12.87450983 19 10 C15.53785351 7.94835763 14.40610765 8 10 8 Z " fill="#FFFFFF" transform="translate(128,25)"/>
<path d="M0 0 C1.92005859 0.00580078 1.92005859 0.00580078 3.87890625 0.01171875 C7.18756788 0.29137511 9.47002181 0.88287039 12.4375 2.3125 C11.7775 5.2825 11.1175 8.2525 10.4375 11.3125 C9.60605469 11.15652344 8.77460938 11.00054687 7.91796875 10.83984375 C6.83128906 10.64519531 5.74460937 10.45054688 4.625 10.25 C3.54605469 10.05277344 2.46710938 9.85554688 1.35546875 9.65234375 C-1.62151781 9.09669925 -1.62151781 9.09669925 -4.5625 10.3125 C-5.7485521 12.05216377 -5.7485521 12.05216377 -5.5625 14.3125 C-3.39951602 16.89412604 -1.04211933 18.90486857 1.51953125 21.08203125 C2.23496094 21.69433594 2.95039063 22.30664062 3.6875 22.9375 C4.37328125 23.50726563 5.0590625 24.07703125 5.765625 24.6640625 C8.38740424 27.24908782 8.4479022 29.43732642 8.75 33.0625 C8.67059189 37.85345593 7.29833447 40.472959 4.4375 44.3125 C-0.15561381 47.19156551 -3.68618856 47.6960285 -9.0625 47.625 C-10.3309375 47.62113281 -11.599375 47.61726563 -12.90625 47.61328125 C-16.44930633 47.32181187 -19.26071756 46.59143116 -22.5625 45.3125 C-22.2325 42.0125 -21.9025 38.7125 -21.5625 35.3125 C-20.2425 35.6425 -18.9225 35.9725 -17.5625 36.3125 C-15.87805961 36.70101232 -14.19032971 37.0754686 -12.5 37.4375 C-11.21416016 37.71980469 -11.21416016 37.71980469 -9.90234375 38.0078125 C-7.41295133 38.50491757 -7.41295133 38.50491757 -4.5625 37.3125 C-3.3764479 35.57283623 -3.3764479 35.57283623 -3.5625 33.3125 C-6.54968807 29.67186454 -10.0831478 27.13851505 -14.01171875 24.62109375 C-16.59273736 22.44315613 -17.42919552 20.25183155 -17.8984375 16.9453125 C-17.98735491 11.23681509 -17.61811275 7.6882927 -13.5625 3.3125 C-8.9180586 0.4648133 -5.41259536 -0.07100276 0 0 Z " fill="#FFFFFF" transform="translate(311.5625,23.6875)"/>
<path d="M0 0 C3.63 0 7.26 0 11 0 C11.3135643 1.85398698 11.62579549 3.70819944 11.9375 5.5625 C12.11152344 6.59503906 12.28554688 7.62757812 12.46484375 8.69140625 C13.01955939 12.12092557 13.50868926 15.56082481 14 19 C17.3 12.73 20.6 6.46 24 0 C27.63 0 31.26 0 35 0 C33.55178303 3.62054242 32.13909056 6.70765711 30.2421875 10.0625 C29.43334106 11.49625977 29.43334106 11.49625977 28.6081543 12.95898438 C26.27353009 17.05534712 23.93826281 21.15120757 21.58740234 25.23828125 C20.63247702 26.89963394 19.68112305 28.56305756 18.73681641 30.23046875 C10.39867054 44.93124984 10.39867054 44.93124984 4 48 C-0.07482985 48.53193592 -3.9201151 48.42838791 -8 48 C-7.67 45.36 -7.34 42.72 -7 40 C-6.443125 39.87625 -5.88625 39.7525 -5.3125 39.625 C-1.8124925 38.67905203 1.05710133 37.78574889 3.875 35.4375 C6.70424253 29.30747453 3.22720866 19.57810058 1.9375 13.125 C1.56907307 11.27394154 1.2030759 9.42239733 0.83984375 7.5703125 C0.67863037 6.76352051 0.51741699 5.95672852 0.35131836 5.12548828 C0 3 0 3 0 0 Z " fill="#FFFFFF" transform="translate(387,38)"/>
<path d="M0 0 C3.63 0 7.26 0 11 0 C11.3135643 1.85398698 11.62579549 3.70819944 11.9375 5.5625 C12.11152344 6.59503906 12.28554687 7.62757812 12.46484375 8.69140625 C13.01955939 12.12092557 13.50868926 15.56082481 14 19 C17.3 12.73 20.6 6.46 24 0 C27.63 0 31.26 0 35 0 C33.55178303 3.62054242 32.13909056 6.70765711 30.2421875 10.0625 C29.43334106 11.49625977 29.43334106 11.49625977 28.6081543 12.95898438 C26.27353009 17.05534712 23.93826281 21.15120757 21.58740234 25.23828125 C20.63247702 26.89963394 19.68112305 28.56305756 18.73681641 30.23046875 C10.39867054 44.93124984 10.39867054 44.93124984 4 48 C-0.07482985 48.53193592 -3.9201151 48.42838791 -8 48 C-7.67 45.36 -7.34 42.72 -7 40 C-6.443125 39.87625 -5.88625 39.7525 -5.3125 39.625 C-1.8124925 38.67905203 1.05710133 37.78574889 3.875 35.4375 C6.70424253 29.30747453 3.22720866 19.57810058 1.9375 13.125 C1.56907307 11.27394154 1.2030759 9.42239733 0.83984375 7.5703125 C0.67863037 6.76352051 0.51741699 5.95672852 0.35131836 5.12548828 C0 3 0 3 0 0 Z " fill="#FFFFFF" transform="translate(198,38)"/>
<path d="M0 0 C0.75474609 0.00064453 1.50949219 0.00128906 2.28710938 0.00195312 C5.83291407 0.03006964 9.02695316 0.23577468 12.4375 1.1875 C10.7793214 11.92202464 8.6035946 22.5462974 6.4375 33.1875 C3.1375 33.1875 -0.1625 33.1875 -3.5625 33.1875 C-3.8925 32.5275 -4.2225 31.8675 -4.5625 31.1875 C-5.036875 31.6825 -5.51125 32.1775 -6 32.6875 C-9.78660592 34.90404981 -13.28022013 35.01952942 -17.5625 34.1875 C-20.84425318 31.65781526 -22.25493777 30.11018669 -23.5625 26.1875 C-24.42870343 19.24367247 -23.01196433 13.25855721 -19.5625 7.1875 C-14.13474787 0.82290298 -7.87022488 -0.1283556 0 0 Z M-9.5625 10.1875 C-12.85138248 14.90156489 -12.84878265 18.65270217 -12.5625 24.1875 C-10.5825 25.1775 -10.5825 25.1775 -8.5625 26.1875 C-3.59975044 22.96841921 -2.06927907 19.68777045 -0.5625 14.1875 C-0.17169203 12.19793215 0.18600872 10.19943023 0.4375 8.1875 C-3.64056701 6.46216396 -6.01273117 7.84616311 -9.5625 10.1875 Z " fill="#FFFFFF" transform="translate(371.5625,36.8125)"/>
<path d="M0 0 C0.76376953 -0.00386719 1.52753906 -0.00773437 2.31445312 -0.01171875 C3.05501953 -0.01042969 3.79558594 -0.00914063 4.55859375 -0.0078125 C5.23075928 -0.00668457 5.9029248 -0.00555664 6.59545898 -0.00439453 C8.68417459 0.13300391 10.55080925 0.55969441 12.5625 1.125 C11.96219169 8.42691376 10.85951918 15.55367584 9.5 22.75 C9.31373047 23.75417969 9.12746094 24.75835937 8.93554688 25.79296875 C8.4815322 28.23766314 8.02254117 30.6814325 7.5625 33.125 C3.9325 33.125 0.3025 33.125 -3.4375 33.125 C-3.7675 32.465 -4.0975 31.805 -4.4375 31.125 C-4.911875 31.62 -5.38625 32.115 -5.875 32.625 C-9.64302978 34.83067597 -13.17016411 34.85452617 -17.4375 34.125 C-19.93910818 32.24879387 -21.05695652 30.88608697 -22.4375 28.125 C-23.09868797 20.47256223 -23.33340785 13.38720771 -18.4375 7.125 C-12.63940779 1.11606807 -8.31981796 -0.04191344 0 0 Z M-8.4375 10.125 C-11.77837818 13.22724402 -12.04778586 16.67499376 -12.6171875 21.00390625 C-12.63297385 23.2386832 -12.63297385 23.2386832 -10.9453125 24.90234375 C-10.44773438 25.30582031 -9.95015625 25.70929687 -9.4375 26.125 C-6.69346218 25.51521382 -4.92999031 24.80217418 -3.25 22.4921875 C-0.70942116 17.72860217 0.17960173 13.48557577 0.5625 8.125 C-3.36306101 6.52569737 -5.14763851 7.67869274 -8.4375 10.125 Z " fill="#FFFFFF" transform="translate(254.4375,36.875)"/>
<path d="M0 0 C3.05995276 2.26523005 3.96410056 4.02745393 5.2109375 7.63671875 C6.1895641 14.65418754 5.066016 20.65957869 1.2109375 26.63671875 C-2.15151721 30.31522664 -5.46966799 32.46491175 -10.53125 32.83984375 C-11.56507813 32.8553125 -12.59890625 32.87078125 -13.6640625 32.88671875 C-15.20707031 32.92539063 -15.20707031 32.92539063 -16.78125 32.96484375 C-21.08166524 32.49570754 -23.71355191 30.86587371 -26.5390625 27.63671875 C-29.04182549 23.63229797 -29.08763201 20.26454622 -28.7890625 15.63671875 C-27.23335901 8.95634496 -24.9732038 4.00441357 -19.3515625 -0.17578125 C-13.25446729 -2.20814632 -5.89107066 -2.87952893 0 0 Z M-15.7890625 10.63671875 C-18.29771735 14.10105163 -18.32042419 17.46173404 -17.7890625 21.63671875 C-15.4163651 23.64536234 -15.4163651 23.64536234 -12.7890625 24.63671875 C-10.27670366 23.31442463 -8.23471984 22.20970676 -6.4765625 19.94921875 C-5.40333219 16.33926224 -5.48948183 13.4114352 -5.7890625 9.63671875 C-6.9997182 7.58667036 -6.9997182 7.58667036 -8.7890625 6.63671875 C-11.9929074 6.63671875 -13.47553671 8.55454554 -15.7890625 10.63671875 Z " fill="#FFFFFF" transform="translate(188.7890625,38.36328125)"/>
<path d="M0 0 C-0.33 2.97 -0.66 5.94 -1 9 C1.31 9.33 3.62 9.66 6 10 C5.34 12.31 4.68 14.62 4 17 C1.69 17.33 -0.62 17.66 -3 18 C-4.19088986 23.38027025 -5.2919519 28.45291384 -5 34 C-2.525 33.505 -2.525 33.505 0 33 C-0.11362262 34.4800841 -0.24122908 35.95910074 -0.375 37.4375 C-0.44460938 38.26121094 -0.51421875 39.08492187 -0.5859375 39.93359375 C-0.72257812 40.61550781 -0.85921875 41.29742187 -1 42 C-3.58008592 43.29004296 -5.55741574 43.20410224 -8.4375 43.25 C-9.88962891 43.28867188 -9.88962891 43.28867188 -11.37109375 43.328125 C-14 43 -14 43 -15.82421875 41.79296875 C-18.79417904 37.26402598 -17.32658915 30.62919184 -16.3203125 25.609375 C-15.60151392 22.72048928 -14.83751332 19.85651865 -14 17 C-15.65 17 -17.3 17 -19 17 C-18.34 14.69 -17.68 12.38 -17 10 C-15.35 10 -13.7 10 -12 10 C-11.67 7.36 -11.34 4.72 -11 2 C-7.12315913 0.80712589 -4.08378077 0 0 0 Z " fill="#FFFFFF" transform="translate(343,28)"/>
<path d="M0 0 C3.63 0 7.26 0 11 0 C5.61702128 28.4893617 5.61702128 28.4893617 3 39 C4.98 39 6.96 39 9 39 C8.34 41.97 7.68 44.94 7 48 C-2.89914663 48.61442979 -2.89914663 48.61442979 -6.6875 46.5 C-9.75212317 40.66262253 -7.68574288 33.46581846 -6.25 27.34375 C-6.07243164 26.55601196 -5.89486328 25.76827393 -5.71191406 24.95666504 C-5.14928533 22.46920824 -4.57486561 19.98465404 -4 17.5 C-3.61379701 15.80226202 -3.22837282 14.10434667 -2.84375 12.40625 C-1.90482014 8.26872936 -0.95531431 4.13376698 0 0 Z " fill="#FFFFFF" transform="translate(278,23)"/>
<path d="M0 0 C3.14177284 0.36962033 5.43278107 1.20414201 8.3125 2.5625 C12.45141218 4.17597424 15.62291516 4.82879713 20 4 C21.90583856 3.09106819 21.90583856 3.09106819 23.6875 1.9375 C27 0 27 0 29.9375 0.25 C30.9584375 0.62125 30.9584375 0.62125 32 1 C32 2.65 32 4.3 32 6 C23.81458347 10.78769646 17.60223158 11.80548521 8 11 C4.64021551 9.91619855 1.54625734 8.54625734 -1 6 C-1.125 3.5 -1.125 3.5 -1 1 C-0.67 0.67 -0.34 0.34 0 0 Z " fill="#F8FAFC" transform="translate(38,61)"/>
<path d="M0 0 C3.99500618 1.3697164 6.80009492 3.25722422 10 6 C7.37886292 6 5.49064888 5.68707555 3 5 C3 4.34 3 3.68 3 3 C2.01 2.67 1.02 2.34 0 2 C0 1.34 0 0.68 0 0 Z " fill="#91A9E3" transform="translate(75,12)"/>
<path d="M0 0 C0.66 0 1.32 0 2 0 C2.33 1.32 2.66 2.64 3 4 C0 6 0 6 -3 6 C-3 5.34 -3 4.68 -3 4 C-2.34 3.67 -1.68 3.34 -1 3 C-0.67 2.01 -0.34 1.02 0 0 Z " fill="#90ABE3" transform="translate(70,64)"/>
</svg>
